# MagicaVoxel @ Ephtracy

# group
o 

# material
mtllib playerC.mtl
usemtl palette

# normals
vn -1 0 0
vn 1 0 0
vn 0 0 1
vn 0 0 -1
vn 0 -1 0
vn 0 1 0

# texcoords
vt 0.0214844 0.5
vt 0.146484 0.5
vt 0.208984 0.5
vt 0.384766 0.5
vt 0.388672 0.5
vt 0.830078 0.5
vt 0.912109 0.5
vt 0.958984 0.5
vt 0.990234 0.5

# verts
v -0.6 1.4 0.2
v -0.6 1.4 0
v -0.6 1.8 0.2
v -0.6 1.8 0
v -0.5 0.4 0.1
v -0.5 0.4 0
v -0.5 0.5 0.1
v -0.5 0.5 0
v -0.5 0.7 0.4
v -0.5 0.7 0.1
v -0.5 0.7 0
v -0.5 0.7 -0.3
v -0.5 1.4 0.2
v -0.5 1.4 0
v -0.5 1.5 0.4
v -0.5 1.5 0.2
v -0.5 1.5 0
v -0.5 1.5 -0.3
v -0.4 0.3 0.3
v -0.4 0.3 -0.1
v -0.4 0.4 0.3
v -0.4 0.4 0.1
v -0.4 0.4 0
v -0.4 0.4 -0.1
v -0.4 0.5 0.1
v -0.4 0.5 0
v -0.4 0.7 0.3
v -0.4 0.7 0.1
v -0.4 0.7 0
v -0.4 0.7 -0.1
v -0.3 0 0.2
v -0.3 0 0
v -0.3 0.1 0.2
v -0.3 0.1 0
v -0.3 0.3 0.2
v -0.3 0.3 0
v -0.2 0.5 0.4
v -0.2 0.5 0.3
v -0.2 0.6 0.4
v -0.2 0.6 0.3
v -0.1 0.6 0.4
v -0.1 0.6 0.3
v -0.1 0.7 0.4
v -0.1 0.7 0.3
v 0.1 0 0.2
v 0.1 0 0
v 0.1 0.1 0.2
v 0.1 0.1 0
v 0.1 0.3 0.2
v 0.1 0.3 0
v 0.1 0.5 0.4
v 0.1 0.5 0.3
v 0.1 0.6 0.4
v 0.1 0.6 0.3
v 0.1 0.7 0.4
v 0.1 0.7 0.3
v 0.1 0.8 0.4
v 0.1 0.8 0.3
v 0.1 1.1 0.4
v 0.1 1.1 0.3
v 0.1 1.2 0.4
v 0.1 1.2 0.3
v 0.2 1.5 0.2
v 0.2 1.5 0
v 0.2 1.8 0.2
v 0.2 1.8 0
v 0.4 0.8 0.4
v 0.4 0.8 0.3
v 0.4 0.9 0.3
v 0.4 1.1 0.4
v 0.4 1.1 0.3
v -0.4 0.8 0.4
v -0.4 0.8 0.3
v -0.4 0.9 0.3
v -0.4 1.1 0.4
v -0.4 1.1 0.3
v -0.2 1.5 0.2
v -0.2 1.5 0
v -0.2 1.8 0.2
v -0.2 1.8 0
v -0.1 0 0.2
v -0.1 0 0
v -0.1 0.1 0.2
v -0.1 0.1 0
v -0.1 0.3 0.2
v -0.1 0.3 0
v -0.1 0.5 0.4
v -0.1 0.5 0.3
v -0.1 0.6 0.4
v -0.1 0.6 0.3
v -0.1 0.7 0.4
v -0.1 0.7 0.3
v -0.1 0.8 0.4
v -0.1 0.8 0.3
v -5.96046e-08 1.1 0.4
v -5.96046e-08 1.1 0.3
v -5.96046e-08 1.2 0.4
v -5.96046e-08 1.2 0.3
v 0.1 0.6 0.4
v 0.1 0.6 0.3
v 0.1 0.7 0.4
v 0.1 0.7 0.3
v 0.2 0.5 0.4
v 0.2 0.5 0.3
v 0.2 0.6 0.4
v 0.2 0.6 0.3
v 0.3 0 0.2
v 0.3 0 0
v 0.3 0.1 0.2
v 0.3 0.1 0
v 0.3 0.3 0.2
v 0.3 0.3 0
v 0.4 0.3 0.3
v 0.4 0.3 -0.1
v 0.4 0.4 0.3
v 0.4 0.4 0.1
v 0.4 0.4 0
v 0.4 0.4 -0.1
v 0.4 0.5 0.1
v 0.4 0.5 0
v 0.4 0.7 0.3
v 0.4 0.7 0.1
v 0.4 0.7 0
v 0.4 0.7 -0.1
v 0.5 0.4 0.1
v 0.5 0.4 0
v 0.5 0.5 0.1
v 0.5 0.5 0
v 0.5 0.7 0.4
v 0.5 0.7 0.1
v 0.5 0.7 0
v 0.5 0.7 -0.3
v 0.5 1.4 0.2
v 0.5 1.4 0
v 0.5 1.5 0.4
v 0.5 1.5 0.2
v 0.5 1.5 0
v 0.5 1.5 -0.3
v 0.6 1.4 0.2
v 0.6 1.4 0
v 0.6 1.8 0.2
v 0.6 1.8 0
v -0.5 0.7 0.4
v -0.5 1.5 0.4
v -0.4 0.8 0.4
v -0.4 1.1 0.4
v -0.4 1.3 0.4
v -0.4 1.4 0.4
v -0.2 0.5 0.4
v -0.2 0.6 0.4
v -0.1 0.5 0.4
v -0.1 0.6 0.4
v -0.1 0.7 0.4
v -0.1 0.8 0.4
v -5.96046e-08 1.1 0.4
v -5.96046e-08 1.2 0.4
v 0.1 0.5 0.4
v 0.1 0.6 0.4
v 0.1 0.7 0.4
v 0.1 0.8 0.4
v 0.1 1.1 0.4
v 0.1 1.2 0.4
v 0.2 0.5 0.4
v 0.2 0.6 0.4
v 0.4 0.8 0.4
v 0.4 1.1 0.4
v 0.4 1.3 0.4
v 0.4 1.4 0.4
v 0.5 0.7 0.4
v 0.5 1.5 0.4
v -0.4 0.3 0.3
v -0.4 0.4 0.3
v -0.4 0.7 0.3
v -0.4 0.8 0.3
v -0.4 0.9 0.3
v -0.4 1.1 0.3
v -0.3 0.9 0.3
v -0.3 1.1 0.3
v -0.2 0.5 0.3
v -0.2 0.6 0.3
v -0.2 0.8 0.3
v -0.2 0.9 0.3
v -0.2 1.1 0.3
v -0.1 0.5 0.3
v -0.1 0.6 0.3
v -0.1 0.7 0.3
v -0.1 0.8 0.3
v -5.96046e-08 1.1 0.3
v -5.96046e-08 1.2 0.3
v 0.1 0.5 0.3
v 0.1 0.6 0.3
v 0.1 0.7 0.3
v 0.1 0.8 0.3
v 0.1 1.1 0.3
v 0.1 1.2 0.3
v 0.2 0.5 0.3
v 0.2 0.6 0.3
v 0.2 0.8 0.3
v 0.2 0.9 0.3
v 0.2 1.1 0.3
v 0.3 0.9 0.3
v 0.3 1.1 0.3
v 0.4 0.3 0.3
v 0.4 0.4 0.3
v 0.4 0.7 0.3
v 0.4 0.8 0.3
v 0.4 0.9 0.3
v 0.4 1.1 0.3
v -0.6 1.4 0.2
v -0.6 1.8 0.2
v -0.5 1.4 0.2
v -0.5 1.5 0.2
v -0.5 1.7 0.2
v -0.3 0 0.2
v -0.3 0.1 0.2
v -0.3 0.3 0.2
v -0.3 1.5 0.2
v -0.3 1.7 0.2
v -0.2 1.5 0.2
v -0.2 1.8 0.2
v -0.1 0 0.2
v -0.1 0.1 0.2
v -0.1 0.3 0.2
v 0.1 0 0.2
v 0.1 0.1 0.2
v 0.1 0.3 0.2
v 0.2 1.5 0.2
v 0.2 1.8 0.2
v 0.3 0 0.2
v 0.3 0.1 0.2
v 0.3 0.3 0.2
v 0.3 1.5 0.2
v 0.3 1.7 0.2
v 0.5 1.4 0.2
v 0.5 1.5 0.2
v 0.5 1.7 0.2
v 0.6 1.4 0.2
v 0.6 1.8 0.2
v -0.5 0.4 0.1
v -0.5 0.5 0.1
v -0.5 0.7 0.1
v -0.4 0.4 0.1
v -0.4 0.5 0.1
v -0.4 0.7 0.1
v 0.4 0.4 0.1
v 0.4 0.5 0.1
v 0.4 0.7 0.1
v 0.5 0.4 0.1
v 0.5 0.5 0.1
v 0.5 0.7 0.1
v -0.6 1.4 0
v -0.6 1.8 0
v -0.5 0.4 0
v -0.5 0.5 0
v -0.5 0.7 0
v -0.5 1.4 0
v -0.5 1.5 0
v -0.4 0.4 0
v -0.4 0.5 0
v -0.4 0.7 0
v -0.3 0 0
v -0.3 0.1 0
v -0.3 0.3 0
v -0.2 1.5 0
v -0.2 1.8 0
v -0.1 0 0
v -0.1 0.1 0
v -0.1 0.3 0
v 0.1 0 0
v 0.1 0.1 0
v 0.1 0.3 0
v 0.2 1.5 0
v 0.2 1.8 0
v 0.3 0 0
v 0.3 0.1 0
v 0.3 0.3 0
v 0.4 0.4 0
v 0.4 0.5 0
v 0.4 0.7 0
v 0.5 0.4 0
v 0.5 0.5 0
v 0.5 0.7 0
v 0.5 1.4 0
v 0.5 1.5 0
v 0.6 1.4 0
v 0.6 1.8 0
v -0.4 0.3 -0.1
v -0.4 0.4 -0.1
v -0.4 0.7 -0.1
v 0.4 0.3 -0.1
v 0.4 0.4 -0.1
v 0.4 0.7 -0.1
v -0.5 0.7 -0.3
v -0.5 1.5 -0.3
v 0.5 0.7 -0.3
v 0.5 1.5 -0.3
v -0.3 0 0.2
v -0.1 0 0.2
v 0.1 0 0.2
v 0.3 0 0.2
v -0.3 0 0
v -0.1 0 0
v 0.1 0 0
v 0.3 0 0
v -0.4 0.3 0.3
v 0.4 0.3 0.3
v -0.3 0.3 0.2
v -0.1 0.3 0.2
v 0.1 0.3 0.2
v 0.3 0.3 0.2
v -0.3 0.3 0
v -0.1 0.3 0
v 0.1 0.3 0
v 0.3 0.3 0
v -0.4 0.3 -0.1
v 0.4 0.3 -0.1
v -0.5 0.4 0.1
v -0.4 0.4 0.1
v 0.4 0.4 0.1
v 0.5 0.4 0.1
v -0.5 0.4 0
v -0.4 0.4 0
v 0.4 0.4 0
v 0.5 0.4 0
v -0.2 0.5 0.4
v -0.1 0.5 0.4
v 0.1 0.5 0.4
v 0.2 0.5 0.4
v -0.2 0.5 0.3
v -0.1 0.5 0.3
v 0.1 0.5 0.3
v 0.2 0.5 0.3
v -0.1 0.6 0.4
v 0.1 0.6 0.4
v -0.1 0.6 0.3
v 0.1 0.6 0.3
v -0.5 0.7 0.4
v -0.1 0.7 0.4
v 0.1 0.7 0.4
v 0.5 0.7 0.4
v -0.4 0.7 0.3
v -0.1 0.7 0.3
v 0.1 0.7 0.3
v 0.4 0.7 0.3
v -0.5 0.7 0.1
v -0.4 0.7 0.1
v 0.4 0.7 0.1
v 0.5 0.7 0.1
v -0.5 0.7 0
v -0.4 0.7 0
v 0.4 0.7 0
v 0.5 0.7 0
v -0.4 0.7 -0.1
v 0.4 0.7 -0.1
v -0.5 0.7 -0.3
v 0.5 0.7 -0.3
v -0.4 1.1 0.4
v -5.96046e-08 1.1 0.4
v 0.1 1.1 0.4
v 0.4 1.1 0.4
v -0.4 1.1 0.3
v -0.3 1.1 0.3
v -0.2 1.1 0.3
v -5.96046e-08 1.1 0.3
v 0.1 1.1 0.3
v 0.2 1.1 0.3
v 0.3 1.1 0.3
v 0.4 1.1 0.3
v -5.96046e-08 1.2 0.4
v 0.1 1.2 0.4
v -5.96046e-08 1.2 0.3
v 0.1 1.2 0.3
v -0.6 1.4 0.2
v -0.5 1.4 0.2
v 0.5 1.4 0.2
v 0.6 1.4 0.2
v -0.6 1.4 0
v -0.5 1.4 0
v 0.5 1.4 0
v 0.6 1.4 0
v -0.2 0.6 0.4
v -0.1 0.6 0.4
v 0.1 0.6 0.4
v 0.2 0.6 0.4
v -0.2 0.6 0.3
v -0.1 0.6 0.3
v 0.1 0.6 0.3
v 0.2 0.6 0.3
v -0.1 0.7 0.4
v 0.1 0.7 0.4
v -0.1 0.7 0.3
v 0.1 0.7 0.3
v -0.4 0.8 0.4
v -0.1 0.8 0.4
v 0.1 0.8 0.4
v 0.4 0.8 0.4
v -0.4 0.8 0.3
v -0.2 0.8 0.3
v -0.1 0.8 0.3
v 0.1 0.8 0.3
v 0.2 0.8 0.3
v 0.4 0.8 0.3
v -0.5 1.5 0.4
v 0.5 1.5 0.4
v -0.5 1.5 0.2
v -0.3 1.5 0.2
v -0.2 1.5 0.2
v 0.2 1.5 0.2
v 0.3 1.5 0.2
v 0.5 1.5 0.2
v -0.5 1.5 0
v -0.2 1.5 0
v 0.2 1.5 0
v 0.5 1.5 0
v -0.5 1.5 -0.3
v 0.5 1.5 -0.3
v -0.6 1.8 0.2
v -0.2 1.8 0.2
v 0.2 1.8 0.2
v 0.6 1.8 0.2
v -0.6 1.8 0
v -0.2 1.8 0
v 0.2 1.8 0
v 0.6 1.8 0

# faces
f 3/5/1 2/5/1 1/5/1
f 4/5/1 2/5/1 3/5/1
f 7/8/1 6/8/1 5/8/1
f 8/8/1 6/8/1 7/8/1
f 10/3/1 8/3/1 7/3/1
f 11/3/1 8/3/1 10/3/1
f 13/5/1 11/5/1 10/5/1
f 13/5/1 12/5/1 11/5/1
f 13/5/1 10/5/1 9/5/1
f 14/5/1 12/5/1 13/5/1
f 15/5/1 13/5/1 9/5/1
f 16/5/1 13/5/1 15/5/1
f 17/5/1 12/5/1 14/5/1
f 18/5/1 12/5/1 17/5/1
f 21/4/1 20/4/1 19/4/1
f 22/4/1 20/4/1 21/4/1
f 23/4/1 20/4/1 22/4/1
f 24/4/1 20/4/1 23/4/1
f 25/5/1 22/5/1 21/5/1
f 26/5/1 24/5/1 23/5/1
f 27/5/1 25/5/1 21/5/1
f 28/5/1 25/5/1 27/5/1
f 29/5/1 24/5/1 26/5/1
f 30/5/1 24/5/1 29/5/1
f 33/7/1 32/7/1 31/7/1
f 34/7/1 32/7/1 33/7/1
f 35/4/1 34/4/1 33/4/1
f 36/4/1 34/4/1 35/4/1
f 39/8/1 38/8/1 37/8/1
f 40/8/1 38/8/1 39/8/1
f 43/5/1 42/5/1 41/5/1
f 44/5/1 42/5/1 43/5/1
f 47/7/1 46/7/1 45/7/1
f 48/7/1 46/7/1 47/7/1
f 49/4/1 48/4/1 47/4/1
f 50/4/1 48/4/1 49/4/1
f 53/8/1 52/8/1 51/8/1
f 54/8/1 52/8/1 53/8/1
f 57/5/1 56/5/1 55/5/1
f 58/5/1 56/5/1 57/5/1
f 61/3/1 60/3/1 59/3/1
f 62/3/1 60/3/1 61/3/1
f 65/5/1 64/5/1 63/5/1
f 66/5/1 64/5/1 65/5/1
f 69/5/1 68/5/1 67/5/1
f 70/5/1 69/5/1 67/5/1
f 71/5/1 69/5/1 70/5/1
f 72/5/2 73/5/2 74/5/2
f 72/5/2 74/5/2 75/5/2
f 75/5/2 74/5/2 76/5/2
f 77/5/2 78/5/2 79/5/2
f 79/5/2 78/5/2 80/5/2
f 81/7/2 82/7/2 83/7/2
f 83/7/2 82/7/2 84/7/2
f 83/4/2 84/4/2 85/4/2
f 85/4/2 84/4/2 86/4/2
f 87/8/2 88/8/2 89/8/2
f 89/8/2 88/8/2 90/8/2
f 91/5/2 92/5/2 93/5/2
f 93/5/2 92/5/2 94/5/2
f 95/3/2 96/3/2 97/3/2
f 97/3/2 96/3/2 98/3/2
f 99/5/2 100/5/2 101/5/2
f 101/5/2 100/5/2 102/5/2
f 103/8/2 104/8/2 105/8/2
f 105/8/2 104/8/2 106/8/2
f 107/7/2 108/7/2 109/7/2
f 109/7/2 108/7/2 110/7/2
f 109/4/2 110/4/2 111/4/2
f 111/4/2 110/4/2 112/4/2
f 113/4/2 114/4/2 115/4/2
f 115/4/2 114/4/2 116/4/2
f 116/4/2 114/4/2 117/4/2
f 117/4/2 114/4/2 118/4/2
f 115/5/2 116/5/2 119/5/2
f 117/5/2 118/5/2 120/5/2
f 115/5/2 119/5/2 121/5/2
f 121/5/2 119/5/2 122/5/2
f 120/5/2 118/5/2 123/5/2
f 123/5/2 118/5/2 124/5/2
f 125/8/2 126/8/2 127/8/2
f 127/8/2 126/8/2 128/8/2
f 127/3/2 128/3/2 130/3/2
f 130/3/2 128/3/2 131/3/2
f 130/5/2 131/5/2 133/5/2
f 131/5/2 132/5/2 133/5/2
f 129/5/2 130/5/2 133/5/2
f 133/5/2 132/5/2 134/5/2
f 129/5/2 133/5/2 135/5/2
f 135/5/2 133/5/2 136/5/2
f 134/5/2 132/5/2 137/5/2
f 137/5/2 132/5/2 138/5/2
f 139/5/2 140/5/2 141/5/2
f 141/5/2 140/5/2 142/5/2
f 145/5/3 144/5/3 143/5/3
f 146/5/3 144/5/3 145/5/3
f 147/5/3 144/5/3 146/5/3
f 148/5/3 144/5/3 147/5/3
f 151/8/3 150/8/3 149/8/3
f 152/8/3 150/8/3 151/8/3
f 153/5/3 145/5/3 143/5/3
f 154/5/3 145/5/3 153/5/3
f 155/3/3 147/3/3 146/3/3
f 156/3/3 147/3/3 155/3/3
f 158/5/3 153/5/3 152/5/3
f 159/5/3 153/5/3 158/5/3
f 162/3/3 147/3/3 156/3/3
f 163/8/3 158/8/3 157/8/3
f 164/8/3 158/8/3 163/8/3
f 165/5/3 160/5/3 159/5/3
f 166/3/3 162/3/3 161/3/3
f 167/2/3 148/2/3 147/2/3
f 167/3/3 147/3/3 162/3/3
f 167/3/3 162/3/3 166/3/3
f 168/5/3 144/5/3 148/5/3
f 168/2/3 148/2/3 167/2/3
f 169/5/3 167/5/3 166/5/3
f 169/5/3 166/5/3 165/5/3
f 169/5/3 168/5/3 167/5/3
f 169/5/3 165/5/3 159/5/3
f 170/5/3 144/5/3 168/5/3
f 170/5/3 168/5/3 169/5/3
f 177/1/3 175/1/3 174/1/3
f 177/8/3 176/8/3 175/8/3
f 178/8/3 176/8/3 177/8/3
f 179/5/3 173/5/3 172/5/3
f 180/5/3 173/5/3 179/5/3
f 181/1/3 177/1/3 174/1/3
f 182/9/3 178/9/3 177/9/3
f 182/1/3 177/1/3 181/1/3
f 183/9/3 178/9/3 182/9/3
f 184/5/3 179/5/3 172/5/3
f 185/5/3 173/5/3 180/5/3
f 186/5/3 173/5/3 185/5/3
f 187/8/3 183/8/3 182/8/3
f 187/8/3 182/8/3 181/8/3
f 188/8/3 187/8/3 186/8/3
f 188/8/3 183/8/3 187/8/3
f 190/5/3 184/5/3 172/5/3
f 190/5/3 185/5/3 184/5/3
f 191/5/3 185/5/3 190/5/3
f 192/8/3 188/8/3 186/8/3
f 192/8/3 189/8/3 188/8/3
f 193/8/3 189/8/3 192/8/3
f 194/8/3 189/8/3 193/8/3
f 195/8/3 189/8/3 194/8/3
f 196/5/3 190/5/3 172/5/3
f 197/5/3 192/5/3 191/5/3
f 198/8/3 194/8/3 193/8/3
f 199/8/3 194/8/3 198/8/3
f 200/8/3 194/8/3 199/8/3
f 201/1/3 199/1/3 198/1/3
f 201/9/3 200/9/3 199/9/3
f 202/9/3 200/9/3 201/9/3
f 203/4/3 172/4/3 171/4/3
f 204/5/3 197/5/3 196/5/3
f 204/4/3 172/4/3 203/4/3
f 204/5/3 196/5/3 172/5/3
f 205/5/3 192/5/3 197/5/3
f 205/5/3 197/5/3 204/5/3
f 206/1/3 201/1/3 198/1/3
f 207/8/3 202/8/3 201/8/3
f 207/1/3 201/1/3 206/1/3
f 208/8/3 202/8/3 207/8/3
f 211/5/3 210/5/3 209/5/3
f 212/5/3 210/5/3 211/5/3
f 213/5/3 210/5/3 212/5/3
f 217/3/3 213/3/3 212/3/3
f 218/5/3 210/5/3 213/5/3
f 218/3/3 213/3/3 217/3/3
f 219/5/3 218/5/3 217/5/3
f 220/5/3 210/5/3 218/5/3
f 220/5/3 218/5/3 219/5/3
f 221/7/3 215/7/3 214/7/3
f 222/4/3 216/4/3 215/4/3
f 222/7/3 215/7/3 221/7/3
f 223/4/3 216/4/3 222/4/3
f 229/7/3 225/7/3 224/7/3
f 230/4/3 226/4/3 225/4/3
f 230/7/3 225/7/3 229/7/3
f 231/4/3 226/4/3 230/4/3
f 232/5/3 228/5/3 227/5/3
f 233/5/3 228/5/3 232/5/3
f 235/3/3 233/3/3 232/3/3
f 236/5/3 228/5/3 233/5/3
f 236/3/3 233/3/3 235/3/3
f 237/5/3 235/5/3 234/5/3
f 237/5/3 236/5/3 235/5/3
f 238/5/3 228/5/3 236/5/3
f 238/5/3 236/5/3 237/5/3
f 242/8/3 240/8/3 239/8/3
f 243/3/3 241/3/3 240/3/3
f 243/8/3 240/8/3 242/8/3
f 244/3/3 241/3/3 243/3/3
f 248/8/3 246/8/3 245/8/3
f 249/3/3 247/3/3 246/3/3
f 249/8/3 246/8/3 248/8/3
f 250/3/3 247/3/3 249/3/3
f 251/5/4 252/5/4 256/5/4
f 256/5/4 252/5/4 257/5/4
f 253/8/4 254/8/4 258/8/4
f 254/3/4 255/3/4 259/3/4
f 258/8/4 254/8/4 259/8/4
f 259/3/4 255/3/4 260/3/4
f 257/5/4 252/5/4 264/5/4
f 264/5/4 252/5/4 265/5/4
f 261/7/4 262/7/4 266/7/4
f 262/4/4 263/4/4 267/4/4
f 266/7/4 262/7/4 267/7/4
f 267/4/4 263/4/4 268/4/4
f 269/7/4 270/7/4 274/7/4
f 270/4/4 271/4/4 275/4/4
f 274/7/4 270/7/4 275/7/4
f 275/4/4 271/4/4 276/4/4
f 277/8/4 278/8/4 280/8/4
f 278/3/4 279/3/4 281/3/4
f 280/8/4 278/8/4 281/8/4
f 281/3/4 279/3/4 282/3/4
f 272/5/4 273/5/4 284/5/4
f 283/5/4 284/5/4 285/5/4
f 284/5/4 273/5/4 286/5/4
f 285/5/4 284/5/4 286/5/4
f 287/4/4 288/4/4 290/4/4
f 288/5/4 289/5/4 291/5/4
f 290/4/4 288/4/4 291/4/4
f 291/5/4 289/5/4 292/5/4
f 293/5/4 294/5/4 295/5/4
f 295/5/4 294/5/4 296/5/4
f 301/7/5 298/7/5 297/7/5
f 302/7/5 298/7/5 301/7/5
f 303/7/5 300/7/5 299/7/5
f 304/7/5 300/7/5 303/7/5
f 307/4/5 306/4/5 305/4/5
f 308/4/5 306/4/5 307/4/5
f 309/4/5 306/4/5 308/4/5
f 310/4/5 306/4/5 309/4/5
f 311/4/5 307/4/5 305/4/5
f 312/5/5 309/5/5 308/5/5
f 313/5/5 309/5/5 312/5/5
f 314/4/5 306/4/5 310/4/5
f 315/4/5 313/4/5 312/4/5
f 315/4/5 314/4/5 313/4/5
f 315/4/5 311/4/5 305/4/5
f 315/4/5 312/4/5 311/4/5
f 316/4/5 306/4/5 314/4/5
f 316/4/5 314/4/5 315/4/5
f 321/8/5 318/8/5 317/8/5
f 322/8/5 318/8/5 321/8/5
f 323/8/5 320/8/5 319/8/5
f 324/8/5 320/8/5 323/8/5
f 329/8/5 326/8/5 325/8/5
f 330/8/5 326/8/5 329/8/5
f 331/8/5 328/8/5 327/8/5
f 332/8/5 328/8/5 331/8/5
f 335/5/5 334/5/5 333/5/5
f 336/5/5 334/5/5 335/5/5
f 341/5/5 338/5/5 337/5/5
f 342/5/5 338/5/5 341/5/5
f 343/5/5 340/5/5 339/5/5
f 344/5/5 340/5/5 343/5/5
f 345/5/5 341/5/5 337/5/5
f 346/5/5 341/5/5 345/5/5
f 347/5/5 340/5/5 344/5/5
f 348/5/5 340/5/5 347/5/5
f 353/5/5 350/5/5 349/5/5
f 354/5/5 352/5/5 351/5/5
f 355/5/5 353/5/5 349/5/5
f 355/5/5 354/5/5 353/5/5
f 356/5/5 352/5/5 354/5/5
f 356/5/5 354/5/5 355/5/5
f 361/3/5 358/3/5 357/3/5
f 362/3/5 358/3/5 361/3/5
f 363/3/5 358/3/5 362/3/5
f 364/3/5 358/3/5 363/3/5
f 365/3/5 360/3/5 359/3/5
f 366/3/5 360/3/5 365/3/5
f 367/3/5 360/3/5 366/3/5
f 368/3/5 360/3/5 367/3/5
f 371/3/5 370/3/5 369/3/5
f 372/3/5 370/3/5 371/3/5
f 377/5/5 374/5/5 373/5/5
f 378/5/5 374/5/5 377/5/5
f 379/5/5 376/5/5 375/5/5
f 380/5/5 376/5/5 379/5/5
f 381/8/6 382/8/6 385/8/6
f 385/8/6 382/8/6 386/8/6
f 383/8/6 384/8/6 387/8/6
f 387/8/6 384/8/6 388/8/6
f 389/5/6 390/5/6 391/5/6
f 391/5/6 390/5/6 392/5/6
f 393/5/6 394/5/6 397/5/6
f 397/5/6 394/5/6 398/5/6
f 398/5/6 394/5/6 399/5/6
f 395/5/6 396/5/6 400/5/6
f 400/5/6 396/5/6 401/5/6
f 401/5/6 396/5/6 402/5/6
f 403/5/6 404/5/6 405/5/6
f 405/5/6 404/5/6 406/5/6
f 406/5/6 404/5/6 407/5/6
f 407/5/6 404/5/6 408/5/6
f 408/5/6 404/5/6 409/5/6
f 409/5/6 404/5/6 410/5/6
f 407/5/6 408/5/6 412/5/6
f 412/5/6 408/5/6 413/5/6
f 411/5/6 412/5/6 415/5/6
f 413/5/6 414/5/6 415/5/6
f 412/5/6 413/5/6 415/5/6
f 415/5/6 414/5/6 416/5/6
f 417/5/6 418/5/6 421/5/6
f 421/5/6 418/5/6 422/5/6
f 419/5/6 420/5/6 423/5/6
f 423/5/6 420/5/6 424/5/6
