# MagicaVoxel @ Ephtracy

# group
o 

# material
mtllib playerA2.mtl
usemtl palette

# normals
vn -1 0 0
vn 1 0 0
vn 0 0 1
vn 0 0 -1
vn 0 -1 0
vn 0 1 0

# texcoords
vt 0.00585938 0.5
vt 0.0371094 0.5
vt 0.458984 0.5
vt 0.494141 0.5
vt 0.904297 0.5
vt 0.912109 0.5
vt 0.958984 0.5
vt 0.990234 0.5

# verts
v -0.5 0.4 0.1
v -0.5 0.4 0
v -0.5 0.5 0.1
v -0.5 0.5 0
v -0.5 0.7 0.4
v -0.5 0.7 0.1
v -0.5 0.7 0
v -0.5 0.7 -0.3
v -0.5 1.5 0.4
v -0.5 1.5 -0.3
v -0.4 0.3 0.3
v -0.4 0.3 -0.1
v -0.4 0.4 0.3
v -0.4 0.4 0.1
v -0.4 0.4 0
v -0.4 0.4 -0.1
v -0.4 0.5 0.1
v -0.4 0.5 0
v -0.4 0.7 0.3
v -0.4 0.7 0.1
v -0.4 0.7 0
v -0.4 0.7 -0.1
v -0.4 1.5 0.2
v -0.4 1.5 -0.1
v -0.4 1.9 0.2
v -0.4 1.9 -0.1
v -0.3 0 0.2
v -0.3 0 0
v -0.3 0.1 0.2
v -0.3 0.1 0
v -0.3 0.3 0.2
v -0.3 0.3 0
v -0.3 0.4 0.4
v -0.3 0.4 0.3
v -0.3 0.5 0.4
v -0.3 0.5 0.3
v -0.3 0.7 0.4
v -0.3 0.7 0.3
v 0.1 0 0.2
v 0.1 0 0
v 0.1 0.1 0.2
v 0.1 0.1 0
v 0.1 0.3 0.2
v 0.1 0.3 0
v 0.1 1.5 0.2
v 0.1 1.5 -0.1
v 0.1 1.6 0.3
v 0.1 1.6 0.2
v 0.1 1.8 0.3
v 0.1 1.8 -0.1
v 0.2 0.5 0.4
v 0.2 0.5 0.3
v 0.2 0.6 0.4
v 0.2 0.6 0.3
v 0.2 0.7 0.4
v 0.2 0.7 0.3
v 0.4 0.8 0.4
v 0.4 0.8 0.3
v 0.4 0.9 0.3
v 0.4 1.2 0.4
v 0.4 1.2 0.3
v -0.4 0.8 0.4
v -0.4 0.8 0.3
v -0.4 0.9 0.3
v -0.4 1.2 0.4
v -0.4 1.2 0.3
v -0.2 0.4 0.4
v -0.2 0.4 0.3
v -0.2 0.5 0.4
v -0.2 0.5 0.3
v -0.2 0.7 0.4
v -0.2 0.7 0.3
v -0.1 0 0.2
v -0.1 0 0
v -0.1 0.1 0.2
v -0.1 0.1 0
v -0.1 0.3 0.2
v -0.1 0.3 0
v -0.1 1.5 0.2
v -0.1 1.5 -0.1
v -0.1 1.9 0.2
v -0.1 1.9 -0.1
v 0.3 0 0.2
v 0.3 0 0
v 0.3 0.1 0.2
v 0.3 0.1 0
v 0.3 0.3 0.2
v 0.3 0.3 0
v 0.3 0.5 0.4
v 0.3 0.5 0.3
v 0.3 0.6 0.4
v 0.3 0.6 0.3
v 0.3 0.7 0.4
v 0.3 0.7 0.3
v 0.4 0.3 0.3
v 0.4 0.3 -0.1
v 0.4 0.4 0.3
v 0.4 0.4 0.1
v 0.4 0.4 0
v 0.4 0.4 -0.1
v 0.4 0.5 0.1
v 0.4 0.5 0
v 0.4 0.7 0.3
v 0.4 0.7 0.1
v 0.4 0.7 0
v 0.4 0.7 -0.1
v 0.4 1.5 0.2
v 0.4 1.5 -0.1
v 0.4 1.6 0.3
v 0.4 1.6 0.2
v 0.4 1.8 0.3
v 0.4 1.8 -0.1
v 0.5 0.4 0.1
v 0.5 0.4 0
v 0.5 0.5 0.1
v 0.5 0.5 0
v 0.5 0.7 0.4
v 0.5 0.7 0.1
v 0.5 0.7 0
v 0.5 0.7 -0.3
v 0.5 1.5 0.4
v 0.5 1.5 -0.3
v -0.5 0.7 0.4
v -0.5 1.5 0.4
v -0.4 0.8 0.4
v -0.4 1.2 0.4
v -0.4 1.3 0.4
v -0.4 1.4 0.4
v -0.3 0.4 0.4
v -0.3 0.5 0.4
v -0.3 0.7 0.4
v -0.2 0.4 0.4
v -0.2 0.5 0.4
v -0.2 0.7 0.4
v 0.2 0.5 0.4
v 0.2 0.6 0.4
v 0.2 0.7 0.4
v 0.3 0.5 0.4
v 0.3 0.6 0.4
v 0.3 0.7 0.4
v 0.4 0.8 0.4
v 0.4 1.2 0.4
v 0.4 1.3 0.4
v 0.4 1.4 0.4
v 0.5 0.7 0.4
v 0.5 1.5 0.4
v -0.4 0.3 0.3
v -0.4 0.4 0.3
v -0.4 0.7 0.3
v -0.4 0.8 0.3
v -0.4 0.9 0.3
v -0.4 1.2 0.3
v -0.3 0.4 0.3
v -0.3 0.5 0.3
v -0.3 0.7 0.3
v -0.3 0.9 0.3
v -0.3 1.1 0.3
v -0.2 0.4 0.3
v -0.2 0.5 0.3
v -0.2 0.7 0.3
v -0.2 0.8 0.3
v -0.2 0.9 0.3
v -0.2 1.1 0.3
v 0.1 1.6 0.3
v 0.1 1.8 0.3
v 0.2 0.5 0.3
v 0.2 0.6 0.3
v 0.2 0.7 0.3
v 0.2 0.8 0.3
v 0.2 0.9 0.3
v 0.2 1.1 0.3
v 0.3 0.5 0.3
v 0.3 0.6 0.3
v 0.3 0.7 0.3
v 0.3 0.9 0.3
v 0.3 1.1 0.3
v 0.4 0.3 0.3
v 0.4 0.4 0.3
v 0.4 0.7 0.3
v 0.4 0.8 0.3
v 0.4 0.9 0.3
v 0.4 1.2 0.3
v 0.4 1.6 0.3
v 0.4 1.8 0.3
v -0.4 1.5 0.2
v -0.4 1.9 0.2
v -0.3 0 0.2
v -0.3 0.1 0.2
v -0.3 0.3 0.2
v -0.3 1.5 0.2
v -0.3 1.8 0.2
v -0.2 1.5 0.2
v -0.2 1.8 0.2
v -0.1 0 0.2
v -0.1 0.1 0.2
v -0.1 0.3 0.2
v -0.1 1.5 0.2
v -0.1 1.9 0.2
v 0.1 0 0.2
v 0.1 0.1 0.2
v 0.1 0.3 0.2
v 0.1 1.5 0.2
v 0.1 1.6 0.2
v 0.2 1.5 0.2
v 0.2 1.6 0.2
v 0.3 0 0.2
v 0.3 0.1 0.2
v 0.3 0.3 0.2
v 0.3 1.5 0.2
v 0.3 1.6 0.2
v 0.4 1.5 0.2
v 0.4 1.6 0.2
v -0.5 0.4 0.1
v -0.5 0.5 0.1
v -0.5 0.7 0.1
v -0.4 0.4 0.1
v -0.4 0.5 0.1
v -0.4 0.7 0.1
v 0.4 0.4 0.1
v 0.4 0.5 0.1
v 0.4 0.7 0.1
v 0.5 0.4 0.1
v 0.5 0.5 0.1
v 0.5 0.7 0.1
v -0.5 0.4 0
v -0.5 0.5 0
v -0.5 0.7 0
v -0.4 0.4 0
v -0.4 0.5 0
v -0.4 0.7 0
v -0.3 0 0
v -0.3 0.1 0
v -0.3 0.3 0
v -0.1 0 0
v -0.1 0.1 0
v -0.1 0.3 0
v 0.1 0 0
v 0.1 0.1 0
v 0.1 0.3 0
v 0.3 0 0
v 0.3 0.1 0
v 0.3 0.3 0
v 0.4 0.4 0
v 0.4 0.5 0
v 0.4 0.7 0
v 0.5 0.4 0
v 0.5 0.5 0
v 0.5 0.7 0
v -0.4 0.3 -0.1
v -0.4 0.4 -0.1
v -0.4 0.7 -0.1
v -0.4 1.5 -0.1
v -0.4 1.9 -0.1
v -0.1 1.5 -0.1
v -0.1 1.9 -0.1
v 0.1 1.5 -0.1
v 0.1 1.8 -0.1
v 0.4 0.3 -0.1
v 0.4 0.4 -0.1
v 0.4 0.7 -0.1
v 0.4 1.5 -0.1
v 0.4 1.8 -0.1
v -0.5 0.7 -0.3
v -0.5 1.5 -0.3
v 0.5 0.7 -0.3
v 0.5 1.5 -0.3
v -0.3 0 0.2
v -0.1 0 0.2
v 0.1 0 0.2
v 0.3 0 0.2
v -0.3 0 0
v -0.1 0 0
v 0.1 0 0
v 0.3 0 0
v -0.4 0.3 0.3
v 0.4 0.3 0.3
v -0.3 0.3 0.2
v -0.1 0.3 0.2
v 0.1 0.3 0.2
v 0.3 0.3 0.2
v -0.3 0.3 0
v -0.1 0.3 0
v 0.1 0.3 0
v 0.3 0.3 0
v -0.4 0.3 -0.1
v 0.4 0.3 -0.1
v -0.3 0.4 0.4
v -0.2 0.4 0.4
v -0.3 0.4 0.3
v -0.2 0.4 0.3
v -0.5 0.4 0.1
v -0.4 0.4 0.1
v 0.4 0.4 0.1
v 0.5 0.4 0.1
v -0.5 0.4 0
v -0.4 0.4 0
v 0.4 0.4 0
v 0.5 0.4 0
v 0.2 0.5 0.4
v 0.3 0.5 0.4
v 0.2 0.5 0.3
v 0.3 0.5 0.3
v -0.5 0.7 0.4
v -0.3 0.7 0.4
v -0.2 0.7 0.4
v 0.2 0.7 0.4
v 0.3 0.7 0.4
v 0.5 0.7 0.4
v -0.4 0.7 0.3
v -0.3 0.7 0.3
v -0.2 0.7 0.3
v 0.2 0.7 0.3
v 0.3 0.7 0.3
v 0.4 0.7 0.3
v -0.5 0.7 0.1
v -0.4 0.7 0.1
v 0.4 0.7 0.1
v 0.5 0.7 0.1
v -0.5 0.7 0
v -0.4 0.7 0
v 0.4 0.7 0
v 0.5 0.7 0
v -0.4 0.7 -0.1
v 0.4 0.7 -0.1
v -0.5 0.7 -0.3
v 0.5 0.7 -0.3
v -0.4 1.2 0.4
v 0.4 1.2 0.4
v -0.4 1.2 0.3
v 0.4 1.2 0.3
v 0.1 1.6 0.3
v 0.4 1.6 0.3
v 0.1 1.6 0.2
v 0.2 1.6 0.2
v 0.3 1.6 0.2
v 0.4 1.6 0.2
v -0.4 0.8 0.4
v 0.4 0.8 0.4
v -0.4 0.8 0.3
v -0.2 0.8 0.3
v 0.2 0.8 0.3
v 0.4 0.8 0.3
v -0.5 1.5 0.4
v 0.5 1.5 0.4
v -0.4 1.5 0.2
v -0.3 1.5 0.2
v -0.2 1.5 0.2
v -0.1 1.5 0.2
v 0.1 1.5 0.2
v 0.2 1.5 0.2
v 0.3 1.5 0.2
v 0.4 1.5 0.2
v -0.4 1.5 -0.1
v -0.1 1.5 -0.1
v 0.1 1.5 -0.1
v 0.4 1.5 -0.1
v -0.5 1.5 -0.3
v 0.5 1.5 -0.3
v 0.1 1.8 0.3
v 0.4 1.8 0.3
v 0.1 1.8 -0.1
v 0.4 1.8 -0.1
v -0.4 1.9 0.2
v -0.1 1.9 0.2
v -0.4 1.9 -0.1
v -0.1 1.9 -0.1

# faces
f 3/7/1 2/7/1 1/7/1
f 4/7/1 2/7/1 3/7/1
f 6/5/1 4/5/1 3/5/1
f 7/5/1 4/5/1 6/5/1
f 9/1/1 7/1/1 6/1/1
f 9/1/1 8/1/1 7/1/1
f 9/1/1 6/1/1 5/1/1
f 10/1/1 8/1/1 9/1/1
f 13/5/1 12/5/1 11/5/1
f 14/5/1 12/5/1 13/5/1
f 15/5/1 12/5/1 14/5/1
f 16/5/1 12/5/1 15/5/1
f 17/1/1 14/1/1 13/1/1
f 18/1/1 16/1/1 15/1/1
f 19/1/1 17/1/1 13/1/1
f 20/1/1 17/1/1 19/1/1
f 21/1/1 16/1/1 18/1/1
f 22/1/1 16/1/1 21/1/1
f 25/1/1 24/1/1 23/1/1
f 26/1/1 24/1/1 25/1/1
f 29/6/1 28/6/1 27/6/1
f 30/6/1 28/6/1 29/6/1
f 31/5/1 30/5/1 29/5/1
f 32/5/1 30/5/1 31/5/1
f 35/6/1 34/6/1 33/6/1
f 36/6/1 34/6/1 35/6/1
f 37/1/1 36/1/1 35/1/1
f 38/1/1 36/1/1 37/1/1
f 41/6/1 40/6/1 39/6/1
f 42/6/1 40/6/1 41/6/1
f 43/5/1 42/5/1 41/5/1
f 44/5/1 42/5/1 43/5/1
f 48/1/1 46/1/1 45/1/1
f 49/1/1 48/1/1 47/1/1
f 50/1/1 46/1/1 48/1/1
f 50/1/1 48/1/1 49/1/1
f 53/6/1 52/6/1 51/6/1
f 54/6/1 52/6/1 53/6/1
f 55/1/1 54/1/1 53/1/1
f 56/1/1 54/1/1 55/1/1
f 59/1/1 58/1/1 57/1/1
f 60/1/1 59/1/1 57/1/1
f 61/1/1 59/1/1 60/1/1
f 62/1/2 63/1/2 64/1/2
f 62/1/2 64/1/2 65/1/2
f 65/1/2 64/1/2 66/1/2
f 67/6/2 68/6/2 69/6/2
f 69/6/2 68/6/2 70/6/2
f 69/1/2 70/1/2 71/1/2
f 71/1/2 70/1/2 72/1/2
f 73/6/2 74/6/2 75/6/2
f 75/6/2 74/6/2 76/6/2
f 75/5/2 76/5/2 77/5/2
f 77/5/2 76/5/2 78/5/2
f 79/1/2 80/1/2 81/1/2
f 81/1/2 80/1/2 82/1/2
f 83/6/2 84/6/2 85/6/2
f 85/6/2 84/6/2 86/6/2
f 85/5/2 86/5/2 87/5/2
f 87/5/2 86/5/2 88/5/2
f 89/6/2 90/6/2 91/6/2
f 91/6/2 90/6/2 92/6/2
f 91/1/2 92/1/2 93/1/2
f 93/1/2 92/1/2 94/1/2
f 95/5/2 96/5/2 97/5/2
f 97/5/2 96/5/2 98/5/2
f 98/5/2 96/5/2 99/5/2
f 99/5/2 96/5/2 100/5/2
f 97/1/2 98/1/2 101/1/2
f 99/1/2 100/1/2 102/1/2
f 97/1/2 101/1/2 103/1/2
f 103/1/2 101/1/2 104/1/2
f 102/1/2 100/1/2 105/1/2
f 105/1/2 100/1/2 106/1/2
f 107/1/2 108/1/2 110/1/2
f 109/1/2 110/1/2 111/1/2
f 110/1/2 108/1/2 112/1/2
f 111/1/2 110/1/2 112/1/2
f 113/7/2 114/7/2 115/7/2
f 115/7/2 114/7/2 116/7/2
f 115/5/2 116/5/2 118/5/2
f 118/5/2 116/5/2 119/5/2
f 118/1/2 119/1/2 121/1/2
f 119/1/2 120/1/2 121/1/2
f 117/1/2 118/1/2 121/1/2
f 121/1/2 120/1/2 122/1/2
f 125/1/3 124/1/3 123/1/3
f 126/1/3 124/1/3 125/1/3
f 127/1/3 124/1/3 126/1/3
f 128/1/3 124/1/3 127/1/3
f 131/1/3 125/1/3 123/1/3
f 132/6/3 130/6/3 129/6/3
f 133/1/3 131/1/3 130/1/3
f 133/6/3 130/6/3 132/6/3
f 134/1/3 125/1/3 131/1/3
f 134/1/3 131/1/3 133/1/3
f 137/1/3 125/1/3 134/1/3
f 138/6/3 136/6/3 135/6/3
f 139/1/3 137/1/3 136/1/3
f 139/6/3 136/6/3 138/6/3
f 140/1/3 125/1/3 137/1/3
f 140/1/3 137/1/3 139/1/3
f 141/1/3 125/1/3 140/1/3
f 142/4/3 127/4/3 126/4/3
f 143/3/3 128/3/3 127/3/3
f 143/4/3 127/4/3 142/4/3
f 144/1/3 124/1/3 128/1/3
f 144/3/3 128/3/3 143/3/3
f 145/1/3 143/1/3 142/1/3
f 145/1/3 141/1/3 140/1/3
f 145/1/3 144/1/3 143/1/3
f 145/1/3 142/1/3 141/1/3
f 146/1/3 124/1/3 144/1/3
f 146/1/3 144/1/3 145/1/3
f 153/5/3 148/5/3 147/5/3
f 153/1/3 149/1/3 148/1/3
f 154/1/3 149/1/3 153/1/3
f 155/1/3 149/1/3 154/1/3
f 156/7/3 152/7/3 151/7/3
f 156/2/3 151/2/3 150/2/3
f 157/7/3 152/7/3 156/7/3
f 158/5/3 153/5/3 147/5/3
f 161/2/3 156/2/3 150/2/3
f 162/8/3 157/8/3 156/8/3
f 162/2/3 156/2/3 161/2/3
f 163/7/3 152/7/3 157/7/3
f 163/8/3 157/8/3 162/8/3
f 166/1/3 160/1/3 159/1/3
f 166/1/3 159/1/3 158/1/3
f 167/1/3 160/1/3 166/1/3
f 168/1/3 160/1/3 167/1/3
f 169/7/3 162/7/3 161/7/3
f 169/7/3 163/7/3 162/7/3
f 170/7/3 163/7/3 169/7/3
f 171/7/3 152/7/3 163/7/3
f 171/7/3 163/7/3 170/7/3
f 172/1/3 166/1/3 158/1/3
f 175/2/3 170/2/3 169/2/3
f 175/8/3 171/8/3 170/8/3
f 176/7/3 152/7/3 171/7/3
f 176/8/3 171/8/3 175/8/3
f 177/5/3 158/5/3 147/5/3
f 178/1/3 174/1/3 173/1/3
f 178/5/3 158/5/3 177/5/3
f 178/1/3 173/1/3 172/1/3
f 178/1/3 172/1/3 158/1/3
f 179/1/3 174/1/3 178/1/3
f 180/2/3 175/2/3 169/2/3
f 181/7/3 176/7/3 175/7/3
f 181/2/3 175/2/3 180/2/3
f 182/7/3 152/7/3 176/7/3
f 182/7/3 176/7/3 181/7/3
f 183/1/3 165/1/3 164/1/3
f 184/1/3 165/1/3 183/1/3
f 190/1/3 186/1/3 185/1/3
f 191/1/3 186/1/3 190/1/3
f 192/3/3 191/3/3 190/3/3
f 193/1/3 186/1/3 191/1/3
f 193/3/3 191/3/3 192/3/3
f 194/6/3 188/6/3 187/6/3
f 195/5/3 189/5/3 188/5/3
f 195/6/3 188/6/3 194/6/3
f 196/5/3 189/5/3 195/5/3
f 197/1/3 193/1/3 192/1/3
f 198/1/3 186/1/3 193/1/3
f 198/1/3 193/1/3 197/1/3
f 204/1/3 203/1/3 202/1/3
f 205/1/3 203/1/3 204/1/3
f 206/6/3 200/6/3 199/6/3
f 207/5/3 201/5/3 200/5/3
f 207/6/3 200/6/3 206/6/3
f 208/5/3 201/5/3 207/5/3
f 209/3/3 205/3/3 204/3/3
f 210/3/3 205/3/3 209/3/3
f 211/1/3 210/1/3 209/1/3
f 212/1/3 210/1/3 211/1/3
f 216/7/3 214/7/3 213/7/3
f 217/5/3 215/5/3 214/5/3
f 217/7/3 214/7/3 216/7/3
f 218/5/3 215/5/3 217/5/3
f 222/7/3 220/7/3 219/7/3
f 223/5/3 221/5/3 220/5/3
f 223/7/3 220/7/3 222/7/3
f 224/5/3 221/5/3 223/5/3
f 225/7/4 226/7/4 228/7/4
f 226/5/4 227/5/4 229/5/4
f 228/7/4 226/7/4 229/7/4
f 229/5/4 227/5/4 230/5/4
f 231/6/4 232/6/4 234/6/4
f 232/5/4 233/5/4 235/5/4
f 234/6/4 232/6/4 235/6/4
f 235/5/4 233/5/4 236/5/4
f 237/6/4 238/6/4 240/6/4
f 238/5/4 239/5/4 241/5/4
f 240/6/4 238/6/4 241/6/4
f 241/5/4 239/5/4 242/5/4
f 243/7/4 244/7/4 246/7/4
f 244/5/4 245/5/4 247/5/4
f 246/7/4 244/7/4 247/7/4
f 247/5/4 245/5/4 248/5/4
f 252/1/4 253/1/4 254/1/4
f 254/1/4 253/1/4 255/1/4
f 249/5/4 250/5/4 258/5/4
f 250/1/4 251/1/4 259/1/4
f 258/5/4 250/5/4 259/5/4
f 259/1/4 251/1/4 260/1/4
f 256/1/4 257/1/4 261/1/4
f 261/1/4 257/1/4 262/1/4
f 263/1/4 264/1/4 265/1/4
f 265/1/4 264/1/4 266/1/4
f 271/6/5 268/6/5 267/6/5
f 272/6/5 268/6/5 271/6/5
f 273/6/5 270/6/5 269/6/5
f 274/6/5 270/6/5 273/6/5
f 277/5/5 276/5/5 275/5/5
f 278/5/5 276/5/5 277/5/5
f 279/5/5 276/5/5 278/5/5
f 280/5/5 276/5/5 279/5/5
f 281/5/5 277/5/5 275/5/5
f 282/1/5 279/1/5 278/1/5
f 283/1/5 279/1/5 282/1/5
f 284/5/5 276/5/5 280/5/5
f 285/5/5 283/5/5 282/5/5
f 285/5/5 284/5/5 283/5/5
f 285/5/5 281/5/5 275/5/5
f 285/5/5 282/5/5 281/5/5
f 286/5/5 276/5/5 284/5/5
f 286/5/5 284/5/5 285/5/5
f 289/6/5 288/6/5 287/6/5
f 290/6/5 288/6/5 289/6/5
f 295/7/5 292/7/5 291/7/5
f 296/7/5 292/7/5 295/7/5
f 297/7/5 294/7/5 293/7/5
f 298/7/5 294/7/5 297/7/5
f 301/6/5 300/6/5 299/6/5
f 302/6/5 300/6/5 301/6/5
f 309/1/5 304/1/5 303/1/5
f 310/1/5 304/1/5 309/1/5
f 311/1/5 306/1/5 305/1/5
f 312/1/5 306/1/5 311/1/5
f 313/1/5 308/1/5 307/1/5
f 314/1/5 308/1/5 313/1/5
f 315/1/5 309/1/5 303/1/5
f 316/1/5 309/1/5 315/1/5
f 317/1/5 308/1/5 314/1/5
f 318/1/5 308/1/5 317/1/5
f 323/1/5 320/1/5 319/1/5
f 324/1/5 322/1/5 321/1/5
f 325/1/5 323/1/5 319/1/5
f 325/1/5 324/1/5 323/1/5
f 326/1/5 322/1/5 324/1/5
f 326/1/5 324/1/5 325/1/5
f 329/4/5 328/4/5 327/4/5
f 330/4/5 328/4/5 329/4/5
f 333/1/5 332/1/5 331/1/5
f 334/1/5 332/1/5 333/1/5
f 335/1/5 332/1/5 334/1/5
f 336/1/5 332/1/5 335/1/5
f 337/1/6 338/1/6 339/1/6
f 339/1/6 338/1/6 340/1/6
f 340/1/6 338/1/6 341/1/6
f 341/1/6 338/1/6 342/1/6
f 343/1/6 344/1/6 345/1/6
f 345/1/6 344/1/6 346/1/6
f 346/1/6 344/1/6 347/1/6
f 347/1/6 344/1/6 348/1/6
f 348/1/6 344/1/6 349/1/6
f 349/1/6 344/1/6 350/1/6
f 350/1/6 344/1/6 351/1/6
f 351/1/6 344/1/6 352/1/6
f 343/1/6 345/1/6 353/1/6
f 348/1/6 349/1/6 354/1/6
f 354/1/6 349/1/6 355/1/6
f 352/1/6 344/1/6 356/1/6
f 354/1/6 355/1/6 357/1/6
f 355/1/6 356/1/6 357/1/6
f 343/1/6 353/1/6 357/1/6
f 353/1/6 354/1/6 357/1/6
f 356/1/6 344/1/6 358/1/6
f 357/1/6 356/1/6 358/1/6
f 359/1/6 360/1/6 361/1/6
f 361/1/6 360/1/6 362/1/6
f 363/1/6 364/1/6 365/1/6
f 365/1/6 364/1/6 366/1/6
