# MagicaVoxel @ Ephtracy

# group
o 

# material
mtllib playerB2.mtl
usemtl palette

# normals
vn -1 0 0
vn 1 0 0
vn 0 0 1
vn 0 0 -1
vn 0 -1 0
vn 0 1 0

# texcoords
vt 0.0214844 0.5
vt 0.279297 0.5
vt 0.306641 0.5
vt 0.541016 0.5
vt 0.642578 0.5
vt 0.830078 0.5
vt 0.912109 0.5
vt 0.958984 0.5
vt 0.990234 0.5

# verts
v -0.5 0.4 0.1
v -0.5 0.4 0
v -0.5 0.5 0.1
v -0.5 0.5 0
v -0.5 0.7 0.4
v -0.5 0.7 0.1
v -0.5 0.7 0
v -0.5 0.7 -0.3
v -0.5 1.5 0.4
v -0.5 1.5 0.2
v -0.5 1.5 -0.1
v -0.5 1.5 -0.3
v -0.5 1.8 0.2
v -0.5 1.8 -0.1
v -0.4 0.3 0.3
v -0.4 0.3 -0.1
v -0.4 0.4 0.3
v -0.4 0.4 0.1
v -0.4 0.4 0
v -0.4 0.4 -0.1
v -0.4 0.5 0.1
v -0.4 0.5 0
v -0.4 0.7 0.3
v -0.4 0.7 0.1
v -0.4 0.7 0
v -0.4 0.7 -0.1
v -0.3 0 0.2
v -0.3 0 0
v -0.3 0.1 0.2
v -0.3 0.1 0
v -0.3 0.3 0.2
v -0.3 0.3 0
v -0.3 1.2 0.4
v -0.3 1.2 0.3
v -0.3 1.3 0.4
v -0.3 1.3 0.3
v -0.2 0.4 0.4
v -0.2 0.4 0.3
v -0.2 0.6 0.4
v -0.2 0.6 0.3
v -0.2 1 0.4
v -0.2 1 0.3
v -0.2 1.1 0.3
v -0.2 1.2 0.4
v -0.2 1.2 0.3
v 0.1 0 0.2
v 0.1 0 0
v 0.1 0.1 0.2
v 0.1 0.1 0
v 0.1 0.3 0.2
v 0.1 0.3 0
v 0.1 1.5 0.2
v 0.1 1.5 -0.1
v 0.1 1.6 0.2
v 0.1 1.6 -0.1
v 0.2 1.6 0.2
v 0.2 1.6 -0.1
v 0.2 1.7 0.2
v 0.2 1.7 -0.1
v 0.3 1.7 0.2
v 0.3 1.7 -0.1
v 0.3 1.8 0.2
v 0.3 1.8 -0.1
v 0.4 0.8 0.4
v 0.4 0.8 0.3
v 0.4 0.9 0.3
v 0.4 1.2 0.4
v 0.4 1.2 0.3
v -0.4 0.8 0.4
v -0.4 0.8 0.3
v -0.4 0.9 0.3
v -0.4 1.2 0.3
v -0.4 1.3 0.4
v -0.4 1.3 0.3
v -0.3 1.7 0.2
v -0.3 1.7 -0.1
v -0.3 1.8 0.2
v -0.3 1.8 -0.1
v -0.2 1.6 0.2
v -0.2 1.6 -0.1
v -0.2 1.7 0.2
v -0.2 1.7 -0.1
v -0.1 0 0.2
v -0.1 0 0
v -0.1 0.1 0.2
v -0.1 0.1 0
v -0.1 0.3 0.2
v -0.1 0.3 0
v -0.1 1 0.4
v -0.1 1 0.3
v -0.1 1.1 0.4
v -0.1 1.1 0.3
v -0.1 1.5 0.2
v -0.1 1.5 -0.1
v -0.1 1.6 0.2
v -0.1 1.6 -0.1
v 0.1 1.1 0.4
v 0.1 1.1 0.3
v 0.1 1.2 0.4
v 0.1 1.2 0.3
v 0.2 0.4 0.4
v 0.2 0.4 0.3
v 0.2 0.6 0.4
v 0.2 0.6 0.3
v 0.3 0 0.2
v 0.3 0 0
v 0.3 0.1 0.2
v 0.3 0.1 0
v 0.3 0.3 0.2
v 0.3 0.3 0
v 0.4 0.3 0.3
v 0.4 0.3 -0.1
v 0.4 0.4 0.3
v 0.4 0.4 0.1
v 0.4 0.4 0
v 0.4 0.4 -0.1
v 0.4 0.5 0.1
v 0.4 0.5 0
v 0.4 0.7 0.3
v 0.4 0.7 0.1
v 0.4 0.7 0
v 0.4 0.7 -0.1
v 0.5 0.4 0.1
v 0.5 0.4 0
v 0.5 0.5 0.1
v 0.5 0.5 0
v 0.5 0.7 0.4
v 0.5 0.7 0.1
v 0.5 0.7 0
v 0.5 0.7 -0.3
v 0.5 1.5 0.4
v 0.5 1.5 0.2
v 0.5 1.5 -0.1
v 0.5 1.5 -0.3
v 0.5 1.8 0.2
v 0.5 1.8 -0.1
v -0.5 0.7 0.4
v -0.5 1.5 0.4
v -0.4 0.8 0.4
v -0.4 1.3 0.4
v -0.4 1.4 0.4
v -0.3 1.2 0.4
v -0.3 1.3 0.4
v -0.2 0.4 0.4
v -0.2 0.6 0.4
v -0.2 1 0.4
v -0.2 1.2 0.4
v -0.1 1 0.4
v -0.1 1.1 0.4
v 0.1 1.1 0.4
v 0.1 1.2 0.4
v 0.2 0.4 0.4
v 0.2 0.6 0.4
v 0.4 0.8 0.4
v 0.4 1.2 0.4
v 0.4 1.3 0.4
v 0.4 1.4 0.4
v 0.5 0.7 0.4
v 0.5 1.5 0.4
v -0.4 0.3 0.3
v -0.4 0.4 0.3
v -0.4 0.7 0.3
v -0.4 0.8 0.3
v -0.4 0.9 0.3
v -0.4 1.2 0.3
v -0.4 1.3 0.3
v -0.3 0.9 0.3
v -0.3 1.1 0.3
v -0.3 1.2 0.3
v -0.3 1.3 0.3
v -0.2 0.4 0.3
v -0.2 0.6 0.3
v -0.2 0.8 0.3
v -0.2 0.9 0.3
v -0.2 1 0.3
v -0.2 1.1 0.3
v -0.2 1.2 0.3
v -0.1 1 0.3
v -0.1 1.1 0.3
v 0.1 1.1 0.3
v 0.1 1.2 0.3
v 0.2 0.4 0.3
v 0.2 0.6 0.3
v 0.2 0.8 0.3
v 0.2 0.9 0.3
v 0.2 1.1 0.3
v 0.3 0.9 0.3
v 0.3 1.1 0.3
v 0.4 0.3 0.3
v 0.4 0.4 0.3
v 0.4 0.7 0.3
v 0.4 0.8 0.3
v 0.4 0.9 0.3
v 0.4 1.2 0.3
v -0.5 1.5 0.2
v -0.5 1.8 0.2
v -0.4 1.5 0.2
v -0.4 1.7 0.2
v -0.3 0 0.2
v -0.3 0.1 0.2
v -0.3 0.3 0.2
v -0.3 1.6 0.2
v -0.3 1.7 0.2
v -0.3 1.8 0.2
v -0.2 1.5 0.2
v -0.2 1.6 0.2
v -0.2 1.7 0.2
v -0.1 0 0.2
v -0.1 0.1 0.2
v -0.1 0.3 0.2
v -0.1 1.5 0.2
v -0.1 1.6 0.2
v 0.1 0 0.2
v 0.1 0.1 0.2
v 0.1 0.3 0.2
v 0.1 1.5 0.2
v 0.1 1.6 0.2
v 0.2 1.5 0.2
v 0.2 1.6 0.2
v 0.2 1.7 0.2
v 0.3 0 0.2
v 0.3 0.1 0.2
v 0.3 0.3 0.2
v 0.3 1.6 0.2
v 0.3 1.7 0.2
v 0.3 1.8 0.2
v 0.4 1.5 0.2
v 0.4 1.7 0.2
v 0.5 1.5 0.2
v 0.5 1.8 0.2
v -0.5 0.4 0.1
v -0.5 0.5 0.1
v -0.5 0.7 0.1
v -0.4 0.4 0.1
v -0.4 0.5 0.1
v -0.4 0.7 0.1
v 0.4 0.4 0.1
v 0.4 0.5 0.1
v 0.4 0.7 0.1
v 0.5 0.4 0.1
v 0.5 0.5 0.1
v 0.5 0.7 0.1
v -0.5 0.4 0
v -0.5 0.5 0
v -0.5 0.7 0
v -0.4 0.4 0
v -0.4 0.5 0
v -0.4 0.7 0
v -0.3 0 0
v -0.3 0.1 0
v -0.3 0.3 0
v -0.1 0 0
v -0.1 0.1 0
v -0.1 0.3 0
v 0.1 0 0
v 0.1 0.1 0
v 0.1 0.3 0
v 0.3 0 0
v 0.3 0.1 0
v 0.3 0.3 0
v 0.4 0.4 0
v 0.4 0.5 0
v 0.4 0.7 0
v 0.5 0.4 0
v 0.5 0.5 0
v 0.5 0.7 0
v -0.5 1.5 -0.1
v -0.5 1.8 -0.1
v -0.4 0.3 -0.1
v -0.4 0.4 -0.1
v -0.4 0.7 -0.1
v -0.3 1.7 -0.1
v -0.3 1.8 -0.1
v -0.2 1.6 -0.1
v -0.2 1.7 -0.1
v -0.1 1.5 -0.1
v -0.1 1.6 -0.1
v 0.1 1.5 -0.1
v 0.1 1.6 -0.1
v 0.2 1.6 -0.1
v 0.2 1.7 -0.1
v 0.3 1.7 -0.1
v 0.3 1.8 -0.1
v 0.4 0.3 -0.1
v 0.4 0.4 -0.1
v 0.4 0.7 -0.1
v 0.5 1.5 -0.1
v 0.5 1.8 -0.1
v -0.5 0.7 -0.3
v -0.5 1.5 -0.3
v 0.5 0.7 -0.3
v 0.5 1.5 -0.3
v -0.3 0 0.2
v -0.1 0 0.2
v 0.1 0 0.2
v 0.3 0 0.2
v -0.3 0 0
v -0.1 0 0
v 0.1 0 0
v 0.3 0 0
v -0.4 0.3 0.3
v 0.4 0.3 0.3
v -0.3 0.3 0.2
v -0.1 0.3 0.2
v 0.1 0.3 0.2
v 0.3 0.3 0.2
v -0.3 0.3 0
v -0.1 0.3 0
v 0.1 0.3 0
v 0.3 0.3 0
v -0.4 0.3 -0.1
v 0.4 0.3 -0.1
v -0.2 0.4 0.4
v 0.2 0.4 0.4
v -0.2 0.4 0.3
v 0.2 0.4 0.3
v -0.5 0.4 0.1
v -0.4 0.4 0.1
v 0.4 0.4 0.1
v 0.5 0.4 0.1
v -0.5 0.4 0
v -0.4 0.4 0
v 0.4 0.4 0
v 0.5 0.4 0
v -0.5 0.7 0.4
v 0.5 0.7 0.4
v -0.4 0.7 0.3
v 0.4 0.7 0.3
v -0.5 0.7 0.1
v -0.4 0.7 0.1
v 0.4 0.7 0.1
v 0.5 0.7 0.1
v -0.5 0.7 0
v -0.4 0.7 0
v 0.4 0.7 0
v 0.5 0.7 0
v -0.4 0.7 -0.1
v 0.4 0.7 -0.1
v -0.5 0.7 -0.3
v 0.5 0.7 -0.3
v -0.2 1 0.4
v -0.1 1 0.4
v -0.2 1 0.3
v -0.1 1 0.3
v -0.1 1.1 0.4
v 0.1 1.1 0.4
v -0.1 1.1 0.3
v 0.1 1.1 0.3
v -0.3 1.2 0.4
v -0.2 1.2 0.4
v 0.1 1.2 0.4
v 0.4 1.2 0.4
v -0.3 1.2 0.3
v -0.2 1.2 0.3
v 0.1 1.2 0.3
v 0.4 1.2 0.3
v -0.4 1.3 0.4
v -0.3 1.3 0.4
v -0.4 1.3 0.3
v -0.3 1.3 0.3
v -0.2 0.6 0.4
v 0.2 0.6 0.4
v -0.2 0.6 0.3
v 0.2 0.6 0.3
v -0.4 0.8 0.4
v 0.4 0.8 0.4
v -0.4 0.8 0.3
v -0.2 0.8 0.3
v 0.2 0.8 0.3
v 0.4 0.8 0.3
v -0.5 1.5 0.4
v 0.5 1.5 0.4
v -0.5 1.5 0.2
v -0.4 1.5 0.2
v -0.2 1.5 0.2
v -0.1 1.5 0.2
v 0.1 1.5 0.2
v 0.2 1.5 0.2
v 0.4 1.5 0.2
v 0.5 1.5 0.2
v -0.5 1.5 -0.1
v -0.1 1.5 -0.1
v 0.1 1.5 -0.1
v 0.5 1.5 -0.1
v -0.5 1.5 -0.3
v 0.5 1.5 -0.3
v -0.2 1.6 0.2
v -0.1 1.6 0.2
v 0.1 1.6 0.2
v 0.2 1.6 0.2
v -0.2 1.6 -0.1
v -0.1 1.6 -0.1
v 0.1 1.6 -0.1
v 0.2 1.6 -0.1
v -0.3 1.7 0.2
v -0.2 1.7 0.2
v 0.2 1.7 0.2
v 0.3 1.7 0.2
v -0.3 1.7 -0.1
v -0.2 1.7 -0.1
v 0.2 1.7 -0.1
v 0.3 1.7 -0.1
v -0.5 1.8 0.2
v -0.3 1.8 0.2
v 0.3 1.8 0.2
v 0.5 1.8 0.2
v -0.5 1.8 -0.1
v -0.3 1.8 -0.1
v 0.3 1.8 -0.1
v 0.5 1.8 -0.1

# faces
f 3/8/1 2/8/1 1/8/1
f 4/8/1 2/8/1 3/8/1
f 6/2/1 4/2/1 3/2/1
f 7/2/1 4/2/1 6/2/1
f 9/4/1 7/4/1 6/4/1
f 9/4/1 8/4/1 7/4/1
f 9/4/1 6/4/1 5/4/1
f 10/4/1 8/4/1 9/4/1
f 11/4/1 8/4/1 10/4/1
f 12/4/1 8/4/1 11/4/1
f 13/4/1 11/4/1 10/4/1
f 14/4/1 11/4/1 13/4/1
f 17/5/1 16/5/1 15/5/1
f 18/5/1 16/5/1 17/5/1
f 19/5/1 16/5/1 18/5/1
f 20/5/1 16/5/1 19/5/1
f 21/4/1 18/4/1 17/4/1
f 22/4/1 20/4/1 19/4/1
f 23/4/1 21/4/1 17/4/1
f 24/4/1 21/4/1 23/4/1
f 25/4/1 20/4/1 22/4/1
f 26/4/1 20/4/1 25/4/1
f 29/7/1 28/7/1 27/7/1
f 30/7/1 28/7/1 29/7/1
f 31/5/1 30/5/1 29/5/1
f 32/5/1 30/5/1 31/5/1
f 35/2/1 34/2/1 33/2/1
f 36/2/1 34/2/1 35/2/1
f 39/8/1 38/8/1 37/8/1
f 40/8/1 38/8/1 39/8/1
f 43/2/1 42/2/1 41/2/1
f 44/2/1 43/2/1 41/2/1
f 45/2/1 43/2/1 44/2/1
f 48/7/1 47/7/1 46/7/1
f 49/7/1 47/7/1 48/7/1
f 50/5/1 49/5/1 48/5/1
f 51/5/1 49/5/1 50/5/1
f 54/4/1 53/4/1 52/4/1
f 55/4/1 53/4/1 54/4/1
f 58/4/1 57/4/1 56/4/1
f 59/4/1 57/4/1 58/4/1
f 62/4/1 61/4/1 60/4/1
f 63/4/1 61/4/1 62/4/1
f 66/4/1 65/4/1 64/4/1
f 67/4/1 66/4/1 64/4/1
f 68/4/1 66/4/1 67/4/1
f 69/4/2 70/4/2 71/4/2
f 69/4/2 71/4/2 72/4/2
f 69/4/2 72/4/2 73/4/2
f 73/4/2 72/4/2 74/4/2
f 75/4/2 76/4/2 77/4/2
f 77/4/2 76/4/2 78/4/2
f 79/4/2 80/4/2 81/4/2
f 81/4/2 80/4/2 82/4/2
f 83/7/2 84/7/2 85/7/2
f 85/7/2 84/7/2 86/7/2
f 85/5/2 86/5/2 87/5/2
f 87/5/2 86/5/2 88/5/2
f 89/2/2 90/2/2 91/2/2
f 91/2/2 90/2/2 92/2/2
f 93/4/2 94/4/2 95/4/2
f 95/4/2 94/4/2 96/4/2
f 97/2/2 98/2/2 99/2/2
f 99/2/2 98/2/2 100/2/2
f 101/8/2 102/8/2 103/8/2
f 103/8/2 102/8/2 104/8/2
f 105/7/2 106/7/2 107/7/2
f 107/7/2 106/7/2 108/7/2
f 107/5/2 108/5/2 109/5/2
f 109/5/2 108/5/2 110/5/2
f 111/5/2 112/5/2 113/5/2
f 113/5/2 112/5/2 114/5/2
f 114/5/2 112/5/2 115/5/2
f 115/5/2 112/5/2 116/5/2
f 113/4/2 114/4/2 117/4/2
f 115/4/2 116/4/2 118/4/2
f 113/4/2 117/4/2 119/4/2
f 119/4/2 117/4/2 120/4/2
f 118/4/2 116/4/2 121/4/2
f 121/4/2 116/4/2 122/4/2
f 123/8/2 124/8/2 125/8/2
f 125/8/2 124/8/2 126/8/2
f 125/2/2 126/2/2 128/2/2
f 128/2/2 126/2/2 129/2/2
f 128/4/2 129/4/2 131/4/2
f 129/4/2 130/4/2 131/4/2
f 127/4/2 128/4/2 131/4/2
f 131/4/2 130/4/2 132/4/2
f 132/4/2 130/4/2 133/4/2
f 133/4/2 130/4/2 134/4/2
f 132/4/2 133/4/2 135/4/2
f 135/4/2 133/4/2 136/4/2
f 139/4/3 138/4/3 137/4/3
f 140/4/3 138/4/3 139/4/3
f 141/4/3 138/4/3 140/4/3
f 143/3/3 141/3/3 140/3/3
f 147/2/3 143/2/3 142/2/3
f 148/2/3 147/2/3 146/2/3
f 149/2/3 147/2/3 148/2/3
f 150/2/3 147/2/3 149/2/3
f 151/2/3 143/2/3 147/2/3
f 151/2/3 147/2/3 150/2/3
f 152/8/3 145/8/3 144/8/3
f 153/8/3 145/8/3 152/8/3
f 154/4/3 139/4/3 137/4/3
f 155/2/3 143/2/3 151/2/3
f 156/3/3 141/3/3 143/3/3
f 156/2/3 143/2/3 155/2/3
f 157/4/3 138/4/3 141/4/3
f 157/3/3 141/3/3 156/3/3
f 158/4/3 156/4/3 155/4/3
f 158/4/3 155/4/3 154/4/3
f 158/4/3 157/4/3 156/4/3
f 158/4/3 154/4/3 137/4/3
f 159/4/3 138/4/3 157/4/3
f 159/4/3 157/4/3 158/4/3
f 167/1/3 164/1/3 163/1/3
f 167/8/3 165/8/3 164/8/3
f 168/8/3 165/8/3 167/8/3
f 169/7/3 166/7/3 165/7/3
f 169/8/3 165/8/3 168/8/3
f 170/7/3 166/7/3 169/7/3
f 171/5/3 161/5/3 160/5/3
f 171/4/3 162/4/3 161/4/3
f 172/4/3 162/4/3 171/4/3
f 173/1/3 167/1/3 163/1/3
f 174/9/3 168/9/3 167/9/3
f 174/1/3 167/1/3 173/1/3
f 175/9/3 168/9/3 174/9/3
f 176/8/3 169/8/3 168/8/3
f 176/9/3 168/9/3 175/9/3
f 177/8/3 169/8/3 176/8/3
f 178/8/3 175/8/3 174/8/3
f 178/8/3 174/8/3 173/8/3
f 180/8/3 179/8/3 178/8/3
f 182/5/3 171/5/3 160/5/3
f 183/4/3 162/4/3 172/4/3
f 184/8/3 181/8/3 180/8/3
f 184/8/3 178/8/3 173/8/3
f 184/8/3 180/8/3 178/8/3
f 185/8/3 181/8/3 184/8/3
f 186/8/3 181/8/3 185/8/3
f 187/1/3 185/1/3 184/1/3
f 187/9/3 186/9/3 185/9/3
f 188/8/3 181/8/3 186/8/3
f 188/9/3 186/9/3 187/9/3
f 189/5/3 182/5/3 160/5/3
f 190/4/3 183/4/3 182/4/3
f 190/5/3 182/5/3 189/5/3
f 191/4/3 162/4/3 183/4/3
f 191/4/3 183/4/3 190/4/3
f 192/1/3 187/1/3 184/1/3
f 193/8/3 188/8/3 187/8/3
f 193/1/3 187/1/3 192/1/3
f 194/8/3 181/8/3 188/8/3
f 194/8/3 188/8/3 193/8/3
f 197/4/3 196/4/3 195/4/3
f 198/4/3 196/4/3 197/4/3
f 202/2/3 198/2/3 197/2/3
f 203/4/3 196/4/3 198/4/3
f 203/2/3 198/2/3 202/2/3
f 204/4/3 196/4/3 203/4/3
f 205/2/3 202/2/3 197/2/3
f 206/4/3 203/4/3 202/4/3
f 206/2/3 202/2/3 205/2/3
f 207/4/3 203/4/3 206/4/3
f 208/7/3 200/7/3 199/7/3
f 209/5/3 201/5/3 200/5/3
f 209/7/3 200/7/3 208/7/3
f 210/5/3 201/5/3 209/5/3
f 211/4/3 206/4/3 205/4/3
f 212/4/3 206/4/3 211/4/3
f 218/4/3 217/4/3 216/4/3
f 219/4/3 217/4/3 218/4/3
f 221/7/3 214/7/3 213/7/3
f 222/5/3 215/5/3 214/5/3
f 222/7/3 214/7/3 221/7/3
f 223/5/3 215/5/3 222/5/3
f 224/2/3 219/2/3 218/2/3
f 224/4/3 220/4/3 219/4/3
f 225/4/3 220/4/3 224/4/3
f 227/2/3 225/2/3 224/2/3
f 227/2/3 224/2/3 218/2/3
f 228/4/3 226/4/3 225/4/3
f 228/2/3 225/2/3 227/2/3
f 229/4/3 228/4/3 227/4/3
f 230/4/3 226/4/3 228/4/3
f 230/4/3 228/4/3 229/4/3
f 234/8/3 232/8/3 231/8/3
f 235/2/3 233/2/3 232/2/3
f 235/8/3 232/8/3 234/8/3
f 236/2/3 233/2/3 235/2/3
f 240/8/3 238/8/3 237/8/3
f 241/2/3 239/2/3 238/2/3
f 241/8/3 238/8/3 240/8/3
f 242/2/3 239/2/3 241/2/3
f 243/8/4 244/8/4 246/8/4
f 244/2/4 245/2/4 247/2/4
f 246/8/4 244/8/4 247/8/4
f 247/2/4 245/2/4 248/2/4
f 249/7/4 250/7/4 252/7/4
f 250/5/4 251/5/4 253/5/4
f 252/7/4 250/7/4 253/7/4
f 253/5/4 251/5/4 254/5/4
f 255/7/4 256/7/4 258/7/4
f 256/5/4 257/5/4 259/5/4
f 258/7/4 256/7/4 259/7/4
f 259/5/4 257/5/4 260/5/4
f 261/8/4 262/8/4 264/8/4
f 262/2/4 263/2/4 265/2/4
f 264/8/4 262/8/4 265/8/4
f 265/2/4 263/2/4 266/2/4
f 267/4/4 268/4/4 272/4/4
f 272/4/4 268/4/4 273/4/4
f 267/4/4 272/4/4 274/4/4
f 274/4/4 272/4/4 275/4/4
f 267/4/4 274/4/4 276/4/4
f 276/4/4 274/4/4 277/4/4
f 278/4/4 279/4/4 280/4/4
f 280/4/4 281/4/4 282/4/4
f 269/5/4 270/5/4 284/5/4
f 270/4/4 271/4/4 285/4/4
f 284/5/4 270/5/4 285/5/4
f 285/4/4 271/4/4 286/4/4
f 282/4/4 283/4/4 287/4/4
f 278/4/4 280/4/4 287/4/4
f 280/4/4 282/4/4 287/4/4
f 287/4/4 283/4/4 288/4/4
f 289/4/4 290/4/4 291/4/4
f 291/4/4 290/4/4 292/4/4
f 297/7/5 294/7/5 293/7/5
f 298/7/5 294/7/5 297/7/5
f 299/7/5 296/7/5 295/7/5
f 300/7/5 296/7/5 299/7/5
f 303/5/5 302/5/5 301/5/5
f 304/5/5 302/5/5 303/5/5
f 305/5/5 302/5/5 304/5/5
f 306/5/5 302/5/5 305/5/5
f 307/5/5 303/5/5 301/5/5
f 308/4/5 305/4/5 304/4/5
f 309/4/5 305/4/5 308/4/5
f 310/5/5 302/5/5 306/5/5
f 311/5/5 309/5/5 308/5/5
f 311/5/5 310/5/5 309/5/5
f 311/5/5 307/5/5 301/5/5
f 311/5/5 308/5/5 307/5/5
f 312/5/5 302/5/5 310/5/5
f 312/5/5 310/5/5 311/5/5
f 315/8/5 314/8/5 313/8/5
f 316/8/5 314/8/5 315/8/5
f 321/8/5 318/8/5 317/8/5
f 322/8/5 318/8/5 321/8/5
f 323/8/5 320/8/5 319/8/5
f 324/8/5 320/8/5 323/8/5
f 327/4/5 326/4/5 325/4/5
f 328/4/5 326/4/5 327/4/5
f 329/4/5 327/4/5 325/4/5
f 330/4/5 327/4/5 329/4/5
f 331/4/5 326/4/5 328/4/5
f 332/4/5 326/4/5 331/4/5
f 337/4/5 334/4/5 333/4/5
f 338/4/5 336/4/5 335/4/5
f 339/4/5 337/4/5 333/4/5
f 339/4/5 338/4/5 337/4/5
f 340/4/5 336/4/5 338/4/5
f 340/4/5 338/4/5 339/4/5
f 343/2/5 342/2/5 341/2/5
f 344/2/5 342/2/5 343/2/5
f 347/2/5 346/2/5 345/2/5
f 348/2/5 346/2/5 347/2/5
f 353/2/5 350/2/5 349/2/5
f 354/2/5 350/2/5 353/2/5
f 355/2/5 352/2/5 351/2/5
f 356/2/5 352/2/5 355/2/5
f 359/3/5 358/3/5 357/3/5
f 360/3/5 358/3/5 359/3/5
f 361/8/6 362/8/6 363/8/6
f 363/8/6 362/8/6 364/8/6
f 365/4/6 366/4/6 367/4/6
f 367/4/6 366/4/6 368/4/6
f 368/4/6 366/4/6 369/4/6
f 369/4/6 366/4/6 370/4/6
f 371/4/6 372/4/6 373/4/6
f 373/4/6 372/4/6 374/4/6
f 374/4/6 372/4/6 375/4/6
f 375/4/6 372/4/6 376/4/6
f 376/4/6 372/4/6 377/4/6
f 377/4/6 372/4/6 378/4/6
f 378/4/6 372/4/6 379/4/6
f 379/4/6 372/4/6 380/4/6
f 376/4/6 377/4/6 382/4/6
f 382/4/6 377/4/6 383/4/6
f 381/4/6 382/4/6 385/4/6
f 383/4/6 384/4/6 385/4/6
f 382/4/6 383/4/6 385/4/6
f 385/4/6 384/4/6 386/4/6
f 387/4/6 388/4/6 391/4/6
f 391/4/6 388/4/6 392/4/6
f 389/4/6 390/4/6 393/4/6
f 393/4/6 390/4/6 394/4/6
f 395/4/6 396/4/6 399/4/6
f 399/4/6 396/4/6 400/4/6
f 397/4/6 398/4/6 401/4/6
f 401/4/6 398/4/6 402/4/6
f 403/4/6 404/4/6 407/4/6
f 407/4/6 404/4/6 408/4/6
f 405/4/6 406/4/6 409/4/6
f 409/4/6 406/4/6 410/4/6
